<svg width="40" height="40" viewBox="0 0 40 40" xmlns="http://www.w3.org/2000/svg" xmlns:xlink="http://www.w3.org/1999/xlink">
    <defs>
        <path d="M15.796 0c.26 0 .47.21.47.469l-.001 2.333 4.56 1.18c.228.06.373.277.349.503l-.017.085-2.996 10.062a.469.469 0 0 1-.563.32l-1.333-.334v1.476c0 .23-.166.421-.384.46l-.085.009H5.38a.469.469 0 0 1-.469-.47v-1.498l-1.325.356a.469.469 0 0 1-.549-.26l-.022-.06L.02 4.57a.469.469 0 0 1 .27-.568l.063-.02L4.91 2.817V.469c0-.23.166-.422.384-.461L5.38 0zm-.468.938h-9.48v14.687h9.48V.937zM16.34 3.79v9.88l1.05.264 2.73-9.166-3.78-.978zM4.911 3.784l-3.855.985 2.727 9.158 1.128-.302V3.784z" id="n40qpjruxa"/>
    </defs>
    <g transform="translate(9.531 12.031)" fill="none" fill-rule="evenodd">        
        <use fill="#000" fill-rule="nonzero" xlink:href="#n40qpjruxa"/>        
    </g>
</svg>
