<svg width="40" height="40" viewBox="0 0 40 40" xmlns="http://www.w3.org/2000/svg" xmlns:xlink="http://www.w3.org/1999/xlink">
    <defs>
        <path d="m15.234 4.73-.002.025V4.783c.002.036-.017 1.09-.811 1.96l-6.326 7.003L1.784 6.76c-.348-.438-.562-.952-.681-1.356a4.973 4.973 0 0 1-.142-.635l-.005-.033v-.007a3.448 3.448 0 0 1-.008-.615c.115-1.63 1.464-3.01 3.09-3.16a3.442 3.442 0 0 1 3.61 2.36l.893-.002A3.442 3.442 0 0 1 12.15.954c1.627.15 2.976 1.53 3.091 3.16a3.71 3.71 0 0 1-.008.615m.955-.352c0-.11-.003-.22-.012-.332-.16-2.099-1.841-3.82-3.937-4.024a4.364 4.364 0 0 0-4.145 2.07A4.364 4.364 0 0 0 3.949.02C1.854.225.173 1.946.013 4.045a4.556 4.556 0 0 0 .01.78c.009.04.13 1.378 1.031 2.524l.01.012 7.031 7.783.348-.385 6.673-7.387c1.033-1.152 1.05-2.44 1.053-2.59v-.005c.012-.132.02-.265.02-.4" id="id9arngmya"/>
    </defs>
    <g transform="translate(11.875 12.5)" fill="none" fill-rule="evenodd">        
        <use fill="#231F20" xlink:href="#id9arngmya"/>        
    </g>
</svg>
